<?xml version="1.0" encoding="iso-8859-1"?>
<!-- Generator: Adobe Illustrator 19.0.0, SVG Export Plug-In . SVG Version: 6.00 Build 0)  -->
<svg version="1.1" id="Capa_1" xmlns="http://www.w3.org/2000/svg" xmlns:xlink="http://www.w3.org/1999/xlink" x="0px" y="0px"
	 viewBox="0 0 469.333 469.333" style="enable-background:new 0 0 469.333 469.333;" xml:space="preserve">
<g>
	<g>
		<g>
			<path style="fill:#fff;" d="M362.667,256V42.667C362.667,19.135,343.521,0,320,0H42.667C19.146,0,0,19.135,0,42.667v330.667
				c0,4.313,2.604,8.208,6.583,9.854C7.896,383.74,9.292,384,10.667,384c2.771,0,5.5-1.083,7.542-3.125l82.208-82.208H320
				C343.521,298.667,362.667,279.531,362.667,256z M242.896,171.365l-53.625,59.76c-2.021,2.25-4.917,3.542-7.938,3.542
				c-3.021,0-5.917-1.292-7.938-3.542l-53.583-59.719c-8.479-9.542-13.146-22.104-13.146-35.406
				c0-27.938,20.729-50.667,46.229-50.667c9.792,0,19.458,5.031,28.438,14.677c8.979-9.646,18.646-14.677,28.438-14.677
				c25.5,0,46.229,22.729,46.229,50.667C256,149.302,251.333,161.865,242.896,171.365z"/>
			<path style="fill:#fff;" d="M426.667,85.333h-32C388.771,85.333,384,90.104,384,96v160c0,35.292-28.708,64-64,64H117.333
				c-5.896,0-10.667,4.771-10.667,10.667v10.667c0,23.531,19.146,42.667,42.667,42.667h219.583l82.208,82.208
				c2.042,2.042,4.771,3.125,7.542,3.125c1.375,0,2.771-0.26,4.083-0.813c3.979-1.646,6.583-5.542,6.583-9.854V128
				C469.333,104.469,450.188,85.333,426.667,85.333z"/>
		</g>
	</g>
</g>
<g>
</g>
<g>
</g>
<g>
</g>
<g>
</g>
<g>
</g>
<g>
</g>
<g>
</g>
<g>
</g>
<g>
</g>
<g>
</g>
<g>
</g>
<g>
</g>
<g>
</g>
<g>
</g>
<g>
</g>
</svg>
